<svg width="34" height="34" viewBox="0 0 34 34" fill="none" xmlns="http://www.w3.org/2000/svg">
<circle cx="17" cy="17" r="15" fill="#000462" stroke="white" stroke-width="4"/>
<path d="M20.6484 21.1719V23H14.5938V21.1719H20.6484ZM15.3594 11.625V23H13.0156V11.625H15.3594ZM19.8594 16.2578V18.0391H14.5938V16.2578H19.8594ZM20.6406 11.625V13.4609H14.5938V11.625H20.6406Z" fill="white"/>
<path d="M20.6484 21.1719H21.6484V20.1719H20.6484V21.1719ZM20.6484 23V24H21.6484V23H20.6484ZM14.5938 23H13.5938V24H14.5938V23ZM14.5938 21.1719V20.1719H13.5938V21.1719H14.5938ZM15.3594 11.625H16.3594V10.625H15.3594V11.625ZM15.3594 23V24H16.3594V23H15.3594ZM13.0156 23H12.0156V24H13.0156V23ZM13.0156 11.625V10.625H12.0156V11.625H13.0156ZM19.8594 16.2578H20.8594V15.2578H19.8594V16.2578ZM19.8594 18.0391V19.0391H20.8594V18.0391H19.8594ZM14.5938 18.0391H13.5938V19.0391H14.5938V18.0391ZM14.5938 16.2578V15.2578H13.5938V16.2578H14.5938ZM20.6406 11.625H21.6406V10.625H20.6406V11.625ZM20.6406 13.4609V14.4609H21.6406V13.4609H20.6406ZM14.5938 13.4609H13.5938V14.4609H14.5938V13.4609ZM14.5938 11.625V10.625H13.5938V11.625H14.5938ZM19.6484 21.1719V23H21.6484V21.1719H19.6484ZM20.6484 22H14.5938V24H20.6484V22ZM15.5938 23V21.1719H13.5938V23H15.5938ZM14.5938 22.1719H20.6484V20.1719H14.5938V22.1719ZM14.3594 11.625V23H16.3594V11.625H14.3594ZM15.3594 22H13.0156V24H15.3594V22ZM14.0156 23V11.625H12.0156V23H14.0156ZM13.0156 12.625H15.3594V10.625H13.0156V12.625ZM18.8594 16.2578V18.0391H20.8594V16.2578H18.8594ZM19.8594 17.0391H14.5938V19.0391H19.8594V17.0391ZM15.5938 18.0391V16.2578H13.5938V18.0391H15.5938ZM14.5938 17.2578H19.8594V15.2578H14.5938V17.2578ZM19.6406 11.625V13.4609H21.6406V11.625H19.6406ZM20.6406 12.4609H14.5938V14.4609H20.6406V12.4609ZM15.5938 13.4609V11.625H13.5938V13.4609H15.5938ZM14.5938 12.625H20.6406V10.625H14.5938V12.625Z" fill="white"/>
</svg>
