<svg width="16" height="14" viewBox="0 0 16 14" fill="none" xmlns="http://www.w3.org/2000/svg">
<path d="M0.127943 5.07997C0.309277 5.77331 0.655943 6.37597 1.16794 6.88797L7.99994 13.96L14.8319 6.88797C15.3439 6.37597 15.6906 5.77331 15.8719 5.07997C16.0533 4.38664 16.0533 3.69864 15.8719 3.01597C15.6906 2.33331 15.3439 1.73597 14.8319 1.22397C14.3199 0.711974 13.7226 0.365307 13.0399 0.183974C12.3573 0.00264031 11.6639 0.00264031 10.9599 0.183974C10.2559 0.365307 9.65861 0.711974 9.16794 1.22397L7.99994 2.63197L6.83194 1.22397C6.31994 0.711974 5.72261 0.365307 5.03994 0.183974C4.35728 0.00264031 3.66928 0.00264031 2.97594 0.183974C2.28261 0.365307 1.67994 0.711974 1.16794 1.22397C0.655943 1.73597 0.309277 2.33331 0.127943 3.01597C-0.05339 3.69864 -0.05339 4.38664 0.127943 5.07997Z" fill="#001B48"/>
</svg>
