<svg width="190" height="59" viewBox="0 0 190 59" fill="none" xmlns="http://www.w3.org/2000/svg">
<path d="M17.2969 26.3438V30H5.1875V26.3438H17.2969ZM6.71875 7.25V30H2.03125V7.25H6.71875ZM15.7188 16.5156V20.0781H5.1875V16.5156H15.7188ZM17.2812 7.25V10.9219H5.1875V7.25H17.2812ZM34.6562 26.3438V30H23.2031V26.3438H34.6562ZM24.7188 7.25V30H20.0312V7.25H24.7188ZM52.6094 26.3438V30H40.5V26.3438H52.6094ZM42.0312 7.25V30H37.3438V7.25H42.0312ZM51.0312 16.5156V20.0781H40.5V16.5156H51.0312ZM52.5938 7.25V10.9219H40.5V7.25H52.5938ZM68.5312 22.4531H73.2031C73.1094 23.9844 72.6875 25.3438 71.9375 26.5312C71.1979 27.7188 70.1615 28.6458 68.8281 29.3125C67.5052 29.9792 65.9115 30.3125 64.0469 30.3125C62.5885 30.3125 61.2812 30.0625 60.125 29.5625C58.9688 29.0521 57.9792 28.3229 57.1562 27.375C56.3438 26.4271 55.724 25.2812 55.2969 23.9375C54.8698 22.5938 54.6562 21.0885 54.6562 19.4219V17.8438C54.6562 16.1771 54.875 14.6719 55.3125 13.3281C55.7604 11.974 56.3958 10.8229 57.2188 9.875C58.0521 8.92708 59.0469 8.19792 60.2031 7.6875C61.3594 7.17708 62.651 6.92188 64.0781 6.92188C65.974 6.92188 67.5729 7.26562 68.875 7.95312C70.1875 8.64062 71.2031 9.58854 71.9219 10.7969C72.651 12.0052 73.0885 13.3802 73.2344 14.9219H68.5469C68.4948 14.0052 68.3125 13.2292 68 12.5938C67.6875 11.9479 67.2135 11.4635 66.5781 11.1406C65.9531 10.8073 65.1198 10.6406 64.0781 10.6406C63.2969 10.6406 62.6146 10.7865 62.0312 11.0781C61.4479 11.3698 60.9583 11.8125 60.5625 12.4062C60.1667 13 59.8698 13.75 59.6719 14.6562C59.4844 15.5521 59.3906 16.6042 59.3906 17.8125V19.4219C59.3906 20.599 59.4792 21.6354 59.6562 22.5312C59.8333 23.4167 60.1042 24.1667 60.4688 24.7812C60.8438 25.3854 61.3229 25.8438 61.9062 26.1562C62.5 26.4583 63.2135 26.6094 64.0469 26.6094C65.026 26.6094 65.8333 26.4531 66.4688 26.1406C67.1042 25.8281 67.5885 25.3646 67.9219 24.75C68.2656 24.1354 68.4688 23.3698 68.5312 22.4531ZM85.9844 7.25V30H81.3125V7.25H85.9844ZM92.9844 7.25V10.9219H74.4219V7.25H92.9844ZM95.6562 7.25H104.141C105.88 7.25 107.375 7.51042 108.625 8.03125C109.885 8.55208 110.854 9.32292 111.531 10.3438C112.208 11.3646 112.547 12.6198 112.547 14.1094C112.547 15.3281 112.339 16.375 111.922 17.25C111.516 18.1146 110.938 18.8385 110.188 19.4219C109.448 19.9948 108.578 20.4531 107.578 20.7969L106.094 21.5781H98.7188L98.6875 17.9219H104.172C104.995 17.9219 105.677 17.776 106.219 17.4844C106.76 17.1927 107.167 16.7865 107.438 16.2656C107.719 15.7448 107.859 15.1406 107.859 14.4531C107.859 13.724 107.724 13.0938 107.453 12.5625C107.182 12.0312 106.771 11.625 106.219 11.3438C105.667 11.0625 104.974 10.9219 104.141 10.9219H100.344V30H95.6562V7.25ZM108.375 30L103.188 19.8594L108.141 19.8281L113.391 29.7812V30H108.375ZM134.844 18.0938V19.1719C134.844 20.901 134.609 22.4531 134.141 23.8281C133.672 25.2031 133.01 26.375 132.156 27.3438C131.302 28.3021 130.281 29.0365 129.094 29.5469C127.917 30.0573 126.609 30.3125 125.172 30.3125C123.745 30.3125 122.438 30.0573 121.25 29.5469C120.073 29.0365 119.052 28.3021 118.188 27.3438C117.323 26.375 116.651 25.2031 116.172 23.8281C115.703 22.4531 115.469 20.901 115.469 19.1719V18.0938C115.469 16.3542 115.703 14.8021 116.172 13.4375C116.641 12.0625 117.302 10.8906 118.156 9.92188C119.021 8.95312 120.042 8.21354 121.219 7.70312C122.406 7.19271 123.714 6.9375 125.141 6.9375C126.578 6.9375 127.885 7.19271 129.062 7.70312C130.25 8.21354 131.271 8.95312 132.125 9.92188C132.99 10.8906 133.656 12.0625 134.125 13.4375C134.604 14.8021 134.844 16.3542 134.844 18.0938ZM130.109 19.1719V18.0625C130.109 16.8542 130 15.7917 129.781 14.875C129.562 13.9583 129.24 13.1875 128.812 12.5625C128.385 11.9375 127.865 11.4688 127.25 11.1562C126.635 10.8333 125.932 10.6719 125.141 10.6719C124.349 10.6719 123.646 10.8333 123.031 11.1562C122.427 11.4688 121.911 11.9375 121.484 12.5625C121.068 13.1875 120.75 13.9583 120.531 14.875C120.312 15.7917 120.203 16.8542 120.203 18.0625V19.1719C120.203 20.3698 120.312 21.4323 120.531 22.3594C120.75 23.276 121.073 24.0521 121.5 24.6875C121.927 25.3125 122.448 25.7865 123.062 26.1094C123.677 26.4323 124.38 26.5938 125.172 26.5938C125.964 26.5938 126.667 26.4323 127.281 26.1094C127.896 25.7865 128.411 25.3125 128.828 24.6875C129.245 24.0521 129.562 23.276 129.781 22.3594C130 21.4323 130.109 20.3698 130.109 19.1719ZM156.734 7.25V30H152.047L142.906 14.75V30H138.219V7.25H142.906L152.062 22.5156V7.25H156.734ZM165.797 7.25V30H161.125V7.25H165.797ZM183.375 22.4531H188.047C187.953 23.9844 187.531 25.3438 186.781 26.5312C186.042 27.7188 185.005 28.6458 183.672 29.3125C182.349 29.9792 180.755 30.3125 178.891 30.3125C177.432 30.3125 176.125 30.0625 174.969 29.5625C173.812 29.0521 172.823 28.3229 172 27.375C171.188 26.4271 170.568 25.2812 170.141 23.9375C169.714 22.5938 169.5 21.0885 169.5 19.4219V17.8438C169.5 16.1771 169.719 14.6719 170.156 13.3281C170.604 11.974 171.24 10.8229 172.062 9.875C172.896 8.92708 173.891 8.19792 175.047 7.6875C176.203 7.17708 177.495 6.92188 178.922 6.92188C180.818 6.92188 182.417 7.26562 183.719 7.95312C185.031 8.64062 186.047 9.58854 186.766 10.7969C187.495 12.0052 187.932 13.3802 188.078 14.9219H183.391C183.339 14.0052 183.156 13.2292 182.844 12.5938C182.531 11.9479 182.057 11.4635 181.422 11.1406C180.797 10.8073 179.964 10.6406 178.922 10.6406C178.141 10.6406 177.458 10.7865 176.875 11.0781C176.292 11.3698 175.802 11.8125 175.406 12.4062C175.01 13 174.714 13.75 174.516 14.6562C174.328 15.5521 174.234 16.6042 174.234 17.8125V19.4219C174.234 20.599 174.323 21.6354 174.5 22.5312C174.677 23.4167 174.948 24.1667 175.312 24.7812C175.688 25.3854 176.167 25.8438 176.75 26.1562C177.344 26.4583 178.057 26.6094 178.891 26.6094C179.87 26.6094 180.677 26.4531 181.312 26.1406C181.948 25.8281 182.432 25.3646 182.766 24.75C183.109 24.1354 183.312 23.3698 183.375 22.4531Z" fill="#001B48"/>
<path d="M17.2969 26.3438H18.2969V25.3438H17.2969V26.3438ZM17.2969 30V31H18.2969V30H17.2969ZM5.1875 30H4.1875V31H5.1875V30ZM5.1875 26.3438V25.3438H4.1875V26.3438H5.1875ZM6.71875 7.25H7.71875V6.25H6.71875V7.25ZM6.71875 30V31H7.71875V30H6.71875ZM2.03125 30H1.03125V31H2.03125V30ZM2.03125 7.25V6.25H1.03125V7.25H2.03125ZM15.7188 16.5156H16.7188V15.5156H15.7188V16.5156ZM15.7188 20.0781V21.0781H16.7188V20.0781H15.7188ZM5.1875 20.0781H4.1875V21.0781H5.1875V20.0781ZM5.1875 16.5156V15.5156H4.1875V16.5156H5.1875ZM17.2812 7.25H18.2812V6.25H17.2812V7.25ZM17.2812 10.9219V11.9219H18.2812V10.9219H17.2812ZM5.1875 10.9219H4.1875V11.9219H5.1875V10.9219ZM5.1875 7.25V6.25H4.1875V7.25H5.1875ZM16.2969 26.3438V30H18.2969V26.3438H16.2969ZM17.2969 29H5.1875V31H17.2969V29ZM6.1875 30V26.3438H4.1875V30H6.1875ZM5.1875 27.3438H17.2969V25.3438H5.1875V27.3438ZM5.71875 7.25V30H7.71875V7.25H5.71875ZM6.71875 29H2.03125V31H6.71875V29ZM3.03125 30V7.25H1.03125V30H3.03125ZM2.03125 8.25H6.71875V6.25H2.03125V8.25ZM14.7188 16.5156V20.0781H16.7188V16.5156H14.7188ZM15.7188 19.0781H5.1875V21.0781H15.7188V19.0781ZM6.1875 20.0781V16.5156H4.1875V20.0781H6.1875ZM5.1875 17.5156H15.7188V15.5156H5.1875V17.5156ZM16.2812 7.25V10.9219H18.2812V7.25H16.2812ZM17.2812 9.92188H5.1875V11.9219H17.2812V9.92188ZM6.1875 10.9219V7.25H4.1875V10.9219H6.1875ZM5.1875 8.25H17.2812V6.25H5.1875V8.25ZM34.6562 26.3438H35.6562V25.3438H34.6562V26.3438ZM34.6562 30V31H35.6562V30H34.6562ZM23.2031 30H22.2031V31H23.2031V30ZM23.2031 26.3438V25.3438H22.2031V26.3438H23.2031ZM24.7188 7.25H25.7188V6.25H24.7188V7.25ZM24.7188 30V31H25.7188V30H24.7188ZM20.0312 30H19.0312V31H20.0312V30ZM20.0312 7.25V6.25H19.0312V7.25H20.0312ZM33.6562 26.3438V30H35.6562V26.3438H33.6562ZM34.6562 29H23.2031V31H34.6562V29ZM24.2031 30V26.3438H22.2031V30H24.2031ZM23.2031 27.3438H34.6562V25.3438H23.2031V27.3438ZM23.7188 7.25V30H25.7188V7.25H23.7188ZM24.7188 29H20.0312V31H24.7188V29ZM21.0312 30V7.25H19.0312V30H21.0312ZM20.0312 8.25H24.7188V6.25H20.0312V8.25ZM52.6094 26.3438H53.6094V25.3438H52.6094V26.3438ZM52.6094 30V31H53.6094V30H52.6094ZM40.5 30H39.5V31H40.5V30ZM40.5 26.3438V25.3438H39.5V26.3438H40.5ZM42.0312 7.25H43.0312V6.25H42.0312V7.25ZM42.0312 30V31H43.0312V30H42.0312ZM37.3438 30H36.3438V31H37.3438V30ZM37.3438 7.25V6.25H36.3438V7.25H37.3438ZM51.0312 16.5156H52.0312V15.5156H51.0312V16.5156ZM51.0312 20.0781V21.0781H52.0312V20.0781H51.0312ZM40.5 20.0781H39.5V21.0781H40.5V20.0781ZM40.5 16.5156V15.5156H39.5V16.5156H40.5ZM52.5938 7.25H53.5938V6.25H52.5938V7.25ZM52.5938 10.9219V11.9219H53.5938V10.9219H52.5938ZM40.5 10.9219H39.5V11.9219H40.5V10.9219ZM40.5 7.25V6.25H39.5V7.25H40.5ZM51.6094 26.3438V30H53.6094V26.3438H51.6094ZM52.6094 29H40.5V31H52.6094V29ZM41.5 30V26.3438H39.5V30H41.5ZM40.5 27.3438H52.6094V25.3438H40.5V27.3438ZM41.0312 7.25V30H43.0312V7.25H41.0312ZM42.0312 29H37.3438V31H42.0312V29ZM38.3438 30V7.25H36.3438V30H38.3438ZM37.3438 8.25H42.0312V6.25H37.3438V8.25ZM50.0312 16.5156V20.0781H52.0312V16.5156H50.0312ZM51.0312 19.0781H40.5V21.0781H51.0312V19.0781ZM41.5 20.0781V16.5156H39.5V20.0781H41.5ZM40.5 17.5156H51.0312V15.5156H40.5V17.5156ZM51.5938 7.25V10.9219H53.5938V7.25H51.5938ZM52.5938 9.92188H40.5V11.9219H52.5938V9.92188ZM41.5 10.9219V7.25H39.5V10.9219H41.5ZM40.5 8.25H52.5938V6.25H40.5V8.25ZM68.5312 22.4531V21.4531H67.5971L67.5336 22.3851L68.5312 22.4531ZM73.2031 22.4531L74.2013 22.5142L74.2662 21.4531H73.2031V22.4531ZM71.9375 26.5312L71.092 25.9972L71.0887 26.0026L71.9375 26.5312ZM68.8281 29.3125L68.3809 28.4181L68.3781 28.4195L68.8281 29.3125ZM60.125 29.5625L59.7211 30.4774L59.7281 30.4804L60.125 29.5625ZM57.1562 27.375L56.397 28.0258L56.4011 28.0306L57.1562 27.375ZM55.3125 13.3281L54.3631 13.0141L54.3616 13.0185L55.3125 13.3281ZM57.2188 9.875L56.4677 9.21473L56.4636 9.21944L57.2188 9.875ZM68.875 7.95312L68.4081 8.83743L68.411 8.83896L68.875 7.95312ZM71.9219 10.7969L71.0624 11.3081L71.0657 11.3135L71.9219 10.7969ZM73.2344 14.9219V15.9219H74.3334L74.2299 14.8277L73.2344 14.9219ZM68.5469 14.9219L67.5485 14.9786L67.6021 15.9219H68.5469V14.9219ZM68 12.5938L67.0998 13.0293L67.1027 13.0351L68 12.5938ZM66.5781 11.1406L66.1075 12.023L66.1163 12.0276L66.1251 12.0321L66.5781 11.1406ZM59.6719 14.6562L58.6949 14.4429L58.6931 14.4514L59.6719 14.6562ZM59.6562 22.5312L58.6752 22.7252L58.6757 22.7274L59.6562 22.5312ZM60.4688 24.7812L59.6087 25.2915L59.6138 25.3001L59.6191 25.3086L60.4688 24.7812ZM61.9062 26.1562L61.434 27.0377L61.4434 27.0427L61.4528 27.0475L61.9062 26.1562ZM67.9219 24.75L67.049 24.2618L67.0428 24.2732L67.9219 24.75ZM68.5312 23.4531H73.2031V21.4531H68.5312V23.4531ZM72.205 22.392C72.1206 23.7712 71.744 24.9649 71.092 25.9973L72.783 27.0652C73.631 25.7226 74.0982 24.1976 74.2013 22.5142L72.205 22.392ZM71.0887 26.0026C70.4531 27.0231 69.5605 27.8283 68.3809 28.4181L69.2753 30.2069C70.7625 29.4634 71.9427 28.4144 72.7863 27.0599L71.0887 26.0026ZM68.3781 28.4195C67.2262 29 65.7946 29.3125 64.0469 29.3125V31.3125C66.0283 31.3125 67.7842 30.9583 69.2782 30.2055L68.3781 28.4195ZM64.0469 29.3125C62.7037 29.3125 61.5346 29.0826 60.5219 28.6446L59.7281 30.4804C61.0279 31.0424 62.4734 31.3125 64.0469 31.3125V29.3125ZM60.5288 28.6477C59.5064 28.1963 58.6371 27.5553 57.9114 26.7194L56.4011 28.0306C57.3213 29.0905 58.4311 29.9078 59.7212 30.4773L60.5288 28.6477ZM57.9155 26.7242C57.2009 25.8905 56.6416 24.8671 56.2499 23.6346L54.3439 24.2404C54.8063 25.6954 55.4866 26.9637 56.397 28.0258L57.9155 26.7242ZM56.2499 23.6346C55.859 22.4047 55.6562 21.0039 55.6562 19.4219H53.6562C53.6562 21.1731 53.8806 22.7828 54.3439 24.2404L56.2499 23.6346ZM55.6562 19.4219V17.8438H53.6562V19.4219H55.6562ZM55.6562 17.8438C55.6562 16.2639 55.8637 14.8654 56.2634 13.6377L54.3616 13.0185C53.8863 14.4783 53.6562 16.0903 53.6562 17.8438H55.6562ZM56.2619 13.6422C56.6739 12.3965 57.2487 11.3659 57.9739 10.5306L56.4636 9.21944C55.543 10.2799 54.8469 11.5514 54.3631 13.0141L56.2619 13.6422ZM57.9698 10.5353C58.7071 9.69656 59.5834 9.05419 60.607 8.60233L59.7993 6.77267C58.5104 7.34165 57.3971 8.15761 56.4677 9.21474L57.9698 10.5353ZM60.607 8.60233C61.6205 8.1549 62.7722 7.92188 64.0781 7.92188V5.92188C62.5299 5.92188 61.0982 6.19927 59.7993 6.77267L60.607 8.60233ZM64.0781 7.92188C65.8567 7.92188 67.2853 8.24462 68.4081 8.83743L69.3419 7.06882C67.8605 6.28663 66.0912 5.92188 64.0781 5.92188V7.92188ZM68.411 8.83896C69.5688 9.44542 70.4435 10.2675 71.0624 11.3081L72.7813 10.2857C71.9628 8.90954 70.8062 7.83583 69.339 7.06729L68.411 8.83896ZM71.0657 11.3135C71.71 12.3812 72.1057 13.6092 72.2388 15.016L74.2299 14.8277C74.0714 13.1513 73.5921 11.6292 72.7781 10.2802L71.0657 11.3135ZM73.2344 13.9219H68.5469V15.9219H73.2344V13.9219ZM69.5453 14.8651C69.4877 13.8527 69.2836 12.9379 68.8973 12.1524L67.1027 13.0351C67.3414 13.5204 67.5018 14.1577 67.5485 14.9786L69.5453 14.8651ZM68.9002 12.1582C68.4931 11.317 67.8628 10.6718 67.0312 10.2491L66.1251 12.0321C66.5642 12.2553 66.8819 12.5788 67.0998 13.0293L68.9002 12.1582ZM67.0487 10.2583C66.2267 9.81986 65.2123 9.64062 64.0781 9.64062V11.6406C65.0272 11.6406 65.6796 11.7947 66.1075 12.023L67.0487 10.2583ZM64.0781 9.64062C63.1721 9.64062 62.3311 9.81017 61.584 10.1837L62.4785 11.9726C62.8981 11.7627 63.4217 11.6406 64.0781 11.6406V9.64062ZM61.584 10.1837C60.8306 10.5604 60.2135 11.127 59.7304 11.8516L61.3946 12.9609C61.7032 12.498 62.0652 12.1792 62.4785 11.9726L61.584 10.1837ZM59.7304 11.8516C59.2481 12.575 58.9118 13.4496 58.6949 14.4429L60.6488 14.8696C60.8277 14.0504 61.0852 13.425 61.3946 12.9609L59.7304 11.8516ZM58.6931 14.4514C58.4878 15.432 58.3906 16.5558 58.3906 17.8125H60.3906C60.3906 16.6525 60.4809 15.6721 60.6507 14.8611L58.6931 14.4514ZM58.3906 17.8125V19.4219H60.3906V17.8125H58.3906ZM58.3906 19.4219C58.3906 20.6465 58.4825 21.7503 58.6752 22.7252L60.6373 22.3373C60.4758 21.5206 60.3906 20.5515 60.3906 19.4219H58.3906ZM58.6757 22.7274C58.8693 23.6956 59.1736 24.558 59.6087 25.2915L61.3288 24.271C61.0348 23.7754 60.7973 23.1377 60.6368 22.3351L58.6757 22.7274ZM59.6191 25.3086C60.0795 26.0504 60.6845 26.6362 61.434 27.0377L62.3785 25.2748C61.9613 25.0513 61.608 24.7204 61.3184 24.2539L59.6191 25.3086ZM61.4528 27.0475C62.2178 27.4368 63.0946 27.6094 64.0469 27.6094V25.6094C63.3325 25.6094 62.7822 25.4799 62.3597 25.265L61.4528 27.0475ZM64.0469 27.6094C65.1238 27.6094 66.0952 27.4388 66.9101 27.038L66.0274 25.2433C65.5715 25.4675 64.9282 25.6094 64.0469 25.6094V27.6094ZM66.9101 27.038C67.7289 26.6353 68.3674 26.026 68.8009 25.2268L67.0428 24.2732C66.8097 24.7032 66.4794 25.021 66.0274 25.2433L66.9101 27.038ZM68.7946 25.2382C69.2291 24.4614 69.4593 23.5422 69.5289 22.5211L67.5336 22.3851C67.4782 23.1974 67.3022 23.8094 67.0491 24.2618L68.7946 25.2382ZM85.9844 7.25H86.9844V6.25H85.9844V7.25ZM85.9844 30V31H86.9844V30H85.9844ZM81.3125 30H80.3125V31H81.3125V30ZM81.3125 7.25V6.25H80.3125V7.25H81.3125ZM92.9844 7.25H93.9844V6.25H92.9844V7.25ZM92.9844 10.9219V11.9219H93.9844V10.9219H92.9844ZM74.4219 10.9219H73.4219V11.9219H74.4219V10.9219ZM74.4219 7.25V6.25H73.4219V7.25H74.4219ZM84.9844 7.25V30H86.9844V7.25H84.9844ZM85.9844 29H81.3125V31H85.9844V29ZM82.3125 30V7.25H80.3125V30H82.3125ZM81.3125 8.25H85.9844V6.25H81.3125V8.25ZM91.9844 7.25V10.9219H93.9844V7.25H91.9844ZM92.9844 9.92188H74.4219V11.9219H92.9844V9.92188ZM75.4219 10.9219V7.25H73.4219V10.9219H75.4219ZM74.4219 8.25H92.9844V6.25H74.4219V8.25ZM95.6562 7.25V6.25H94.6562V7.25H95.6562ZM108.625 8.03125L108.24 8.95433L108.243 8.95545L108.625 8.03125ZM111.922 17.25L111.019 16.8201L111.017 16.8247L111.922 17.25ZM110.188 19.4219L110.8 20.2124L110.801 20.2112L110.188 19.4219ZM107.578 20.7969L107.253 19.8512L107.18 19.8762L107.112 19.912L107.578 20.7969ZM106.094 21.5781V22.5781H106.341L106.559 22.463L106.094 21.5781ZM98.7188 21.5781L97.7188 21.5867L97.7273 22.5781H98.7188V21.5781ZM98.6875 17.9219V16.9219H97.6789L97.6875 17.9304L98.6875 17.9219ZM107.438 16.2656L106.558 15.7905L106.554 15.7973L106.55 15.8043L107.438 16.2656ZM100.344 10.9219V9.92188H99.3438V10.9219H100.344ZM100.344 30V31H101.344V30H100.344ZM95.6562 30H94.6562V31H95.6562V30ZM108.375 30L107.485 30.4554L107.763 31H108.375V30ZM103.188 19.8594L103.181 18.8594L101.558 18.8696L102.297 20.3148L103.188 19.8594ZM108.141 19.8281L109.025 19.3616L108.742 18.8243L108.134 18.8281L108.141 19.8281ZM113.391 29.7812H114.391V29.5337L114.275 29.3147L113.391 29.7812ZM113.391 30V31H114.391V30H113.391ZM95.6562 8.25H104.141V6.25H95.6562V8.25ZM104.141 8.25C105.784 8.25 107.142 8.49649 108.24 8.95433L109.01 7.10817C107.608 6.52435 105.976 6.25 104.141 6.25V8.25ZM108.243 8.95545C109.341 9.40916 110.143 10.0602 110.698 10.8965L112.365 9.79101C111.565 8.58562 110.43 7.69501 109.007 7.10705L108.243 8.95545ZM110.698 10.8965C111.245 11.721 111.547 12.7735 111.547 14.1094H113.547C113.547 12.4661 113.172 11.0081 112.365 9.79101L110.698 10.8965ZM111.547 14.1094C111.547 15.2166 111.357 16.1094 111.019 16.8201L112.825 17.6799C113.32 16.6406 113.547 15.4396 113.547 14.1094H111.547ZM111.017 16.8247C110.677 17.5475 110.198 18.1465 109.574 18.6325L110.801 20.2112C111.677 19.5306 112.354 18.6817 112.827 17.6753L111.017 16.8247ZM109.575 18.6313C108.933 19.129 108.163 19.5385 107.253 19.8512L107.903 21.7426C108.993 21.3678 109.963 20.8606 110.8 20.2124L109.575 18.6313ZM107.112 19.912L105.628 20.6932L106.559 22.463L108.044 21.6818L107.112 19.912ZM106.094 20.5781H98.7188V22.5781H106.094V20.5781ZM99.7187 21.5696L99.6875 17.9133L97.6875 17.9304L97.7188 21.5867L99.7187 21.5696ZM98.6875 18.9219H104.172V16.9219H98.6875V18.9219ZM104.172 18.9219C105.107 18.9219 105.965 18.757 106.693 18.3648L105.745 16.6039C105.39 16.7951 104.883 16.9219 104.172 16.9219V18.9219ZM106.693 18.3648C107.402 17.9829 107.957 17.4346 108.325 16.727L106.55 15.8043C106.377 16.1383 106.119 16.4025 105.745 16.6039L106.693 18.3648ZM108.317 16.7408C108.689 16.052 108.859 15.2796 108.859 14.4531H106.859C106.859 15.0017 106.748 15.4376 106.558 15.7905L108.317 16.7408ZM108.859 14.4531C108.859 13.6007 108.701 12.8082 108.344 12.1083L106.562 13.0167C106.747 13.3793 106.859 13.8472 106.859 14.4531H108.859ZM108.344 12.1083C107.973 11.3813 107.405 10.8258 106.673 10.4527L105.765 12.2348C106.137 12.4242 106.391 12.6812 106.562 13.0167L108.344 12.1083ZM106.673 10.4527C105.94 10.0795 105.08 9.92188 104.141 9.92188V11.9219C104.868 11.9219 105.393 12.0455 105.765 12.2348L106.673 10.4527ZM104.141 9.92188H100.344V11.9219H104.141V9.92188ZM99.3438 10.9219V30H101.344V10.9219H99.3438ZM100.344 29H95.6562V31H100.344V29ZM96.6562 30V7.25H94.6562V30H96.6562ZM109.265 29.5446L104.078 19.4039L102.297 20.3148L107.485 30.4554L109.265 29.5446ZM103.194 20.8594L108.147 20.8281L108.134 18.8281L103.181 18.8594L103.194 20.8594ZM107.256 20.2947L112.506 30.2478L114.275 29.3147L109.025 19.3616L107.256 20.2947ZM112.391 29.7812V30H114.391V29.7812H112.391ZM113.391 29H108.375V31H113.391V29ZM132.156 27.3438L132.903 28.0091L132.906 28.0051L132.156 27.3438ZM129.094 29.5469L128.699 28.6281L128.696 28.6294L129.094 29.5469ZM121.25 29.5469L120.852 30.4643L120.855 30.4656L121.25 29.5469ZM118.188 27.3438L117.441 28.0096L117.445 28.0136L118.188 27.3438ZM116.172 23.8281L115.225 24.1508L115.228 24.1572L116.172 23.8281ZM116.172 13.4375L117.118 13.7624L117.118 13.7602L116.172 13.4375ZM118.156 9.92188L117.41 9.25601L117.406 9.26052L118.156 9.92188ZM121.219 7.70312L120.824 6.78439L120.821 6.78567L121.219 7.70312ZM129.062 7.70312L128.665 8.62059L128.668 8.62185L129.062 7.70312ZM132.125 9.92188L131.375 10.5832L131.379 10.5877L132.125 9.92188ZM134.125 13.4375L133.178 13.7602L133.181 13.7688L134.125 13.4375ZM129.781 14.875L128.809 15.1071L129.781 14.875ZM127.25 11.1562L126.785 12.0416L126.797 12.0476L127.25 11.1562ZM123.031 11.1562L123.491 12.0445L123.496 12.0415L123.031 11.1562ZM121.484 12.5625L120.659 11.9983L120.652 12.0078L121.484 12.5625ZM120.531 22.3594L119.558 22.589L119.559 22.5915L120.531 22.3594ZM121.5 24.6875L120.67 25.2454L120.674 25.2517L121.5 24.6875ZM123.062 26.1094L122.597 26.9946L123.062 26.1094ZM128.828 24.6875L129.66 25.2422L129.664 25.2359L128.828 24.6875ZM129.781 22.3594L130.754 22.5915L130.755 22.589L129.781 22.3594ZM133.844 18.0938V19.1719H135.844V18.0938H133.844ZM133.844 19.1719C133.844 20.8116 133.621 22.252 133.194 23.5055L135.087 24.1508C135.597 22.6543 135.844 20.9905 135.844 19.1719H133.844ZM133.194 23.5055C132.763 24.7712 132.163 25.8241 131.406 26.6824L132.906 28.0051C133.858 26.9259 134.581 25.635 135.087 24.1508L133.194 23.5055ZM131.41 26.6784C130.654 27.5268 129.753 28.1751 128.699 28.6281L129.489 30.4656C130.81 29.8979 131.951 29.0774 132.903 28.0091L131.41 26.6784ZM128.696 28.6294C127.659 29.0792 126.489 29.3125 125.172 29.3125V31.3125C126.73 31.3125 128.175 31.0354 129.492 30.4643L128.696 28.6294ZM125.172 29.3125C123.866 29.3125 122.695 29.0796 121.645 28.6281L120.855 30.4656C122.18 31.035 123.623 31.3125 125.172 31.3125V29.3125ZM121.648 28.6294C120.603 28.1763 119.699 27.5266 118.93 26.6739L117.445 28.0136C118.405 29.0775 119.543 29.8966 120.852 30.4643L121.648 28.6294ZM118.934 26.6779C118.167 25.8185 117.557 24.7649 117.116 23.4991L115.228 24.1572C115.745 25.6413 116.479 26.9315 117.441 28.0096L118.934 26.6779ZM117.118 23.5055C116.691 22.252 116.469 20.8116 116.469 19.1719H114.469C114.469 20.9905 114.715 22.6543 115.225 24.1508L117.118 23.5055ZM116.469 19.1719V18.0938H114.469V19.1719H116.469ZM116.469 18.0938C116.469 16.4427 116.691 15.0034 117.118 13.7624L115.226 13.1126C114.715 14.6007 114.469 16.2656 114.469 18.0938H116.469ZM117.118 13.7602C117.55 12.4944 118.15 11.4415 118.906 10.5832L117.406 9.26052C116.455 10.3397 115.731 11.6306 115.225 13.1148L117.118 13.7602ZM118.902 10.5877C119.672 9.72574 120.574 9.07264 121.617 8.62058L120.821 6.78567C119.509 7.35444 118.37 8.18051 117.41 9.25602L118.902 10.5877ZM121.614 8.62185C122.664 8.17039 123.835 7.9375 125.141 7.9375V5.9375C123.592 5.9375 122.149 6.21502 120.824 6.7844L121.614 8.62185ZM125.141 7.9375C126.458 7.9375 127.627 8.17082 128.665 8.62058L129.46 6.78567C128.143 6.2146 126.698 5.9375 125.141 5.9375V7.9375ZM128.668 8.62185C129.719 9.07387 130.619 9.72559 131.375 10.5832L132.875 9.26052C131.923 8.18066 130.781 7.35322 129.457 6.7844L128.668 8.62185ZM131.379 10.5877C132.144 11.4454 132.748 12.4968 133.178 13.7602L135.072 13.1148C134.565 11.6282 133.835 10.3358 132.871 9.25602L131.379 10.5877ZM133.181 13.7688C133.617 15.0078 133.844 16.4448 133.844 18.0938H135.844C135.844 16.2635 135.592 14.5963 135.069 13.1062L133.181 13.7688ZM131.109 19.1719V18.0625H129.109V19.1719H131.109ZM131.109 18.0625C131.109 16.7967 130.995 15.6534 130.754 14.6429L128.809 15.1071C129.005 15.9299 129.109 16.9116 129.109 18.0625H131.109ZM130.754 14.6429C130.514 13.6355 130.149 12.7454 129.638 11.9983L127.987 13.1267C128.331 13.6296 128.611 14.2812 128.809 15.1071L130.754 14.6429ZM129.638 11.9983C129.126 11.2486 128.482 10.6607 127.703 10.2649L126.797 12.0476C127.247 12.2768 127.645 12.6264 127.987 13.1267L129.638 11.9983ZM127.715 10.271C126.938 9.86272 126.071 9.67188 125.141 9.67188V11.6719C125.793 11.6719 126.333 11.8039 126.785 12.0415L127.715 10.271ZM125.141 9.67188C124.21 9.67188 123.343 9.86272 122.566 10.271L123.496 12.0415C123.948 11.8039 124.488 11.6719 125.141 11.6719V9.67188ZM122.572 10.268C121.805 10.6649 121.168 11.2524 120.659 11.9983L122.31 13.1267C122.654 12.6226 123.05 12.2726 123.491 12.0445L122.572 10.268ZM120.652 12.0078C120.156 12.7526 119.798 13.6393 119.559 14.6429L121.504 15.1071C121.702 14.2774 121.98 13.6224 122.316 13.1172L120.652 12.0078ZM119.559 14.6429C119.317 15.6534 119.203 16.7967 119.203 18.0625H121.203C121.203 16.9116 121.308 15.9299 121.504 15.1071L119.559 14.6429ZM119.203 18.0625V19.1719H121.203V18.0625H119.203ZM119.203 19.1719C119.203 20.4283 119.318 21.5703 119.558 22.589L121.505 22.1297C121.307 21.2943 121.203 20.3113 121.203 19.1719H119.203ZM119.559 22.5915C119.799 23.5985 120.163 24.4908 120.67 25.2453L122.33 24.1297C121.983 23.6134 121.701 22.9536 121.504 22.1273L119.559 22.5915ZM120.674 25.2517C121.185 25.9991 121.825 26.589 122.597 26.9946L123.528 25.2241C123.07 24.9839 122.669 24.6259 122.326 24.1233L120.674 25.2517ZM122.597 26.9946C123.374 27.4029 124.241 27.5938 125.172 27.5938V25.5938C124.519 25.5938 123.98 25.4617 123.528 25.2241L122.597 26.9946ZM125.172 27.5938C126.103 27.5938 126.969 27.4029 127.746 26.9946L126.816 25.2241C126.364 25.4617 125.824 25.5938 125.172 25.5938V27.5938ZM127.746 26.9946C128.521 26.5876 129.159 25.9946 129.66 25.2422L127.996 24.1328C127.664 24.6304 127.271 24.9853 126.816 25.2241L127.746 26.9946ZM129.664 25.2359C130.158 24.4836 130.515 23.5947 130.754 22.5915L128.809 22.1273C128.61 22.9574 128.332 23.6205 127.992 24.1391L129.664 25.2359ZM130.755 22.589C130.995 21.5703 131.109 20.4283 131.109 19.1719H129.109C129.109 20.3113 129.005 21.2943 128.808 22.1297L130.755 22.589ZM156.734 7.25H157.734V6.25H156.734V7.25ZM156.734 30V31H157.734V30H156.734ZM152.047 30L151.189 30.5141L151.48 31H152.047V30ZM142.906 14.75L143.764 14.2359L141.906 11.1365V14.75H142.906ZM142.906 30V31H143.906V30H142.906ZM138.219 30H137.219V31H138.219V30ZM138.219 7.25V6.25H137.219V7.25H138.219ZM142.906 7.25L143.764 6.73563L143.473 6.25H142.906V7.25ZM152.062 22.5156L151.205 23.03L153.062 26.127V22.5156H152.062ZM152.062 7.25V6.25H151.062V7.25H152.062ZM155.734 7.25V30H157.734V7.25H155.734ZM156.734 29H152.047V31H156.734V29ZM152.905 29.4859L143.764 14.2359L142.049 15.2641L151.189 30.5141L152.905 29.4859ZM141.906 14.75V30H143.906V14.75H141.906ZM142.906 29H138.219V31H142.906V29ZM139.219 30V7.25H137.219V30H139.219ZM138.219 8.25H142.906V6.25H138.219V8.25ZM142.049 7.76437L151.205 23.03L152.92 22.0013L143.764 6.73563L142.049 7.76437ZM153.062 22.5156V7.25H151.062V22.5156H153.062ZM152.062 8.25H156.734V6.25H152.062V8.25ZM165.797 7.25H166.797V6.25H165.797V7.25ZM165.797 30V31H166.797V30H165.797ZM161.125 30H160.125V31H161.125V30ZM161.125 7.25V6.25H160.125V7.25H161.125ZM164.797 7.25V30H166.797V7.25H164.797ZM165.797 29H161.125V31H165.797V29ZM162.125 30V7.25H160.125V30H162.125ZM161.125 8.25H165.797V6.25H161.125V8.25ZM183.375 22.4531V21.4531H182.441L182.377 22.3851L183.375 22.4531ZM188.047 22.4531L189.045 22.5142L189.11 21.4531H188.047V22.4531ZM186.781 26.5312L185.936 25.9972L185.932 26.0026L186.781 26.5312ZM183.672 29.3125L183.225 28.4181L183.222 28.4195L183.672 29.3125ZM174.969 29.5625L174.565 30.4774L174.572 30.4804L174.969 29.5625ZM172 27.375L171.241 28.0258L171.245 28.0306L172 27.375ZM170.156 13.3281L169.207 13.0141L169.205 13.0185L170.156 13.3281ZM172.062 9.875L171.311 9.21473L171.307 9.21944L172.062 9.875ZM183.719 7.95312L183.252 8.83743L183.255 8.83896L183.719 7.95312ZM186.766 10.7969L185.906 11.3081L185.909 11.3135L186.766 10.7969ZM188.078 14.9219V15.9219H189.177L189.074 14.8277L188.078 14.9219ZM183.391 14.9219L182.392 14.9786L182.446 15.9219H183.391V14.9219ZM182.844 12.5938L181.944 13.0293L181.946 13.0351L182.844 12.5938ZM181.422 11.1406L180.951 12.023L180.96 12.0276L180.969 12.0321L181.422 11.1406ZM174.516 14.6562L173.539 14.4429L173.537 14.4514L174.516 14.6562ZM174.5 22.5312L173.519 22.7252L173.519 22.7274L174.5 22.5312ZM175.312 24.7812L174.452 25.2915L174.458 25.3001L174.463 25.3086L175.312 24.7812ZM176.75 26.1562L176.278 27.0377L176.287 27.0427L176.297 27.0475L176.75 26.1562ZM182.766 24.75L181.893 24.2618L181.887 24.2732L182.766 24.75ZM183.375 23.4531H188.047V21.4531H183.375V23.4531ZM187.049 22.392C186.964 23.7712 186.588 24.9649 185.936 25.9973L187.627 27.0652C188.475 25.7226 188.942 24.1976 189.045 22.5142L187.049 22.392ZM185.932 26.0026C185.297 27.0231 184.404 27.8283 183.225 28.4181L184.119 30.2069C185.606 29.4634 186.786 28.4144 187.63 27.0599L185.932 26.0026ZM183.222 28.4195C182.07 29 180.638 29.3125 178.891 29.3125V31.3125C180.872 31.3125 182.628 30.9583 184.122 30.2055L183.222 28.4195ZM178.891 29.3125C177.547 29.3125 176.378 29.0826 175.366 28.6446L174.572 30.4804C175.872 31.0424 177.317 31.3125 178.891 31.3125V29.3125ZM175.373 28.6477C174.35 28.1963 173.481 27.5553 172.755 26.7194L171.245 28.0306C172.165 29.0905 173.275 29.9078 174.565 30.4773L175.373 28.6477ZM172.759 26.7242C172.045 25.8905 171.485 24.8671 171.094 23.6346L169.188 24.2404C169.65 25.6954 170.33 26.9637 171.241 28.0258L172.759 26.7242ZM171.094 23.6346C170.703 22.4047 170.5 21.0039 170.5 19.4219H168.5C168.5 21.1731 168.724 22.7828 169.188 24.2404L171.094 23.6346ZM170.5 19.4219V17.8438H168.5V19.4219H170.5ZM170.5 17.8438C170.5 16.2639 170.707 14.8654 171.107 13.6377L169.205 13.0185C168.73 14.4783 168.5 16.0903 168.5 17.8438H170.5ZM171.106 13.6422C171.518 12.3965 172.092 11.3659 172.818 10.5306L171.307 9.21944C170.387 10.2799 169.691 11.5514 169.207 13.0141L171.106 13.6422ZM172.814 10.5353C173.551 9.69656 174.427 9.05419 175.451 8.60233L174.643 6.77267C173.354 7.34165 172.241 8.15761 171.311 9.21474L172.814 10.5353ZM175.451 8.60233C176.464 8.1549 177.616 7.92188 178.922 7.92188V5.92188C177.374 5.92188 175.942 6.19927 174.643 6.77267L175.451 8.60233ZM178.922 7.92188C180.7 7.92188 182.129 8.24462 183.252 8.83743L184.186 7.06882C182.704 6.28663 180.935 5.92188 178.922 5.92188V7.92188ZM183.255 8.83896C184.413 9.44542 185.287 10.2675 185.906 11.3081L187.625 10.2857C186.807 8.90954 185.65 7.83583 184.183 7.06729L183.255 8.83896ZM185.909 11.3135C186.554 12.3812 186.949 13.6092 187.083 15.016L189.074 14.8277C188.915 13.1513 188.436 11.6292 187.622 10.2802L185.909 11.3135ZM188.078 13.9219H183.391V15.9219H188.078V13.9219ZM184.389 14.8651C184.331 13.8527 184.127 12.9379 183.741 12.1524L181.946 13.0351C182.185 13.5204 182.346 14.1577 182.392 14.9786L184.389 14.8651ZM183.744 12.1582C183.337 11.317 182.707 10.6718 181.875 10.2491L180.969 12.0321C181.408 12.2553 181.726 12.5788 181.944 13.0293L183.744 12.1582ZM181.892 10.2583C181.07 9.81986 180.056 9.64062 178.922 9.64062V11.6406C179.871 11.6406 180.523 11.7947 180.951 12.023L181.892 10.2583ZM178.922 9.64062C178.016 9.64062 177.175 9.81017 176.428 10.1837L177.322 11.9726C177.742 11.7627 178.265 11.6406 178.922 11.6406V9.64062ZM176.428 10.1837C175.674 10.5604 175.057 11.127 174.574 11.8516L176.238 12.9609C176.547 12.498 176.909 12.1792 177.322 11.9726L176.428 10.1837ZM174.574 11.8516C174.092 12.575 173.756 13.4496 173.539 14.4429L175.493 14.8696C175.671 14.0504 175.929 13.425 176.238 12.9609L174.574 11.8516ZM173.537 14.4514C173.332 15.432 173.234 16.5558 173.234 17.8125H175.234C175.234 16.6525 175.325 15.6721 175.494 14.8611L173.537 14.4514ZM173.234 17.8125V19.4219H175.234V17.8125H173.234ZM173.234 19.4219C173.234 20.6465 173.326 21.7503 173.519 22.7252L175.481 22.3373C175.32 21.5206 175.234 20.5515 175.234 19.4219H173.234ZM173.519 22.7274C173.713 23.6956 174.017 24.558 174.452 25.2915L176.173 24.271C175.879 23.7754 175.641 23.1377 175.481 22.3351L173.519 22.7274ZM174.463 25.3086C174.923 26.0504 175.528 26.6362 176.278 27.0377L177.222 25.2748C176.805 25.0513 176.452 24.7204 176.162 24.2539L174.463 25.3086ZM176.297 27.0475C177.062 27.4368 177.938 27.6094 178.891 27.6094V25.6094C178.176 25.6094 177.626 25.4799 177.203 25.265L176.297 27.0475ZM178.891 27.6094C179.968 27.6094 180.939 27.4388 181.754 27.038L180.871 25.2433C180.415 25.4675 179.772 25.6094 178.891 25.6094V27.6094ZM181.754 27.038C182.573 26.6353 183.211 26.026 183.645 25.2268L181.887 24.2732C181.653 24.7032 181.323 25.021 180.871 25.2433L181.754 27.038ZM183.638 25.2382C184.073 24.4614 184.303 23.5422 184.373 22.5211L182.377 22.3851C182.322 23.1974 182.146 23.8094 181.893 24.2618L183.638 25.2382Z" fill="#001B48"/>
<path d="M1.57227 46.0469H2.85059L6.11133 54.1611L9.36523 46.0469H10.6504L6.60352 56H5.60547L1.57227 46.0469ZM1.15527 46.0469H2.2832L2.46777 52.1172V56H1.15527V46.0469ZM9.93262 46.0469H11.0605V56H9.74805V52.1172L9.93262 46.0469ZM17.5479 54.7354V50.9277C17.5479 50.6361 17.4886 50.3831 17.3701 50.1689C17.2562 49.9502 17.083 49.7816 16.8506 49.6631C16.6182 49.5446 16.3311 49.4854 15.9893 49.4854C15.6702 49.4854 15.39 49.54 15.1484 49.6494C14.9115 49.7588 14.7246 49.9023 14.5879 50.0801C14.4557 50.2578 14.3896 50.4492 14.3896 50.6543H13.125C13.125 50.39 13.1934 50.1279 13.3301 49.8682C13.4668 49.6084 13.6628 49.3737 13.918 49.1641C14.1777 48.9499 14.4876 48.7812 14.8477 48.6582C15.2122 48.5306 15.6178 48.4668 16.0645 48.4668C16.6022 48.4668 17.0762 48.5579 17.4863 48.7402C17.901 48.9225 18.2246 49.1982 18.457 49.5674C18.694 49.932 18.8125 50.39 18.8125 50.9414V54.3867C18.8125 54.6328 18.833 54.8949 18.874 55.1729C18.9196 55.4508 18.9857 55.6901 19.0723 55.8906V56H17.7529C17.6891 55.8542 17.639 55.6605 17.6025 55.4189C17.5661 55.1729 17.5479 54.945 17.5479 54.7354ZM17.7666 51.5156L17.7803 52.4043H16.502C16.1419 52.4043 15.8206 52.4339 15.5381 52.4932C15.2555 52.5479 15.0186 52.6322 14.8271 52.7461C14.6357 52.86 14.4899 53.0036 14.3896 53.1768C14.2894 53.3454 14.2393 53.5436 14.2393 53.7715C14.2393 54.0039 14.2917 54.2158 14.3965 54.4072C14.5013 54.5986 14.6585 54.7513 14.8682 54.8652C15.0824 54.9746 15.3444 55.0293 15.6543 55.0293C16.0417 55.0293 16.3835 54.9473 16.6797 54.7832C16.9759 54.6191 17.2106 54.4186 17.3838 54.1816C17.5615 53.9447 17.6572 53.7145 17.6709 53.4912L18.2109 54.0996C18.179 54.291 18.0924 54.5029 17.9512 54.7354C17.8099 54.9678 17.6208 55.1911 17.3838 55.4053C17.1514 55.6149 16.8734 55.7904 16.5498 55.9316C16.2308 56.0684 15.8708 56.1367 15.4697 56.1367C14.9684 56.1367 14.5286 56.0387 14.1504 55.8428C13.7767 55.6468 13.485 55.3848 13.2754 55.0566C13.0703 54.724 12.9678 54.3525 12.9678 53.9424C12.9678 53.5459 13.0452 53.1973 13.2002 52.8965C13.3551 52.5911 13.5785 52.3382 13.8701 52.1377C14.1618 51.9326 14.5127 51.7777 14.9229 51.6729C15.333 51.568 15.791 51.5156 16.2969 51.5156H17.7666ZM25.5801 48.6035V49.6494H22.1621V56H20.8975V48.6035H25.5801ZM31.042 54.7354V50.9277C31.042 50.6361 30.9827 50.3831 30.8643 50.1689C30.7503 49.9502 30.5771 49.7816 30.3447 49.6631C30.1123 49.5446 29.8252 49.4854 29.4834 49.4854C29.1644 49.4854 28.8841 49.54 28.6426 49.6494C28.4056 49.7588 28.2188 49.9023 28.082 50.0801C27.9499 50.2578 27.8838 50.4492 27.8838 50.6543H26.6191C26.6191 50.39 26.6875 50.1279 26.8242 49.8682C26.9609 49.6084 27.1569 49.3737 27.4121 49.1641C27.6719 48.9499 27.9818 48.7812 28.3418 48.6582C28.7064 48.5306 29.112 48.4668 29.5586 48.4668C30.0964 48.4668 30.5703 48.5579 30.9805 48.7402C31.3952 48.9225 31.7188 49.1982 31.9512 49.5674C32.1882 49.932 32.3066 50.39 32.3066 50.9414V54.3867C32.3066 54.6328 32.3271 54.8949 32.3682 55.1729C32.4137 55.4508 32.4798 55.6901 32.5664 55.8906V56H31.2471C31.1833 55.8542 31.1331 55.6605 31.0967 55.4189C31.0602 55.1729 31.042 54.945 31.042 54.7354ZM31.2607 51.5156L31.2744 52.4043H29.9961C29.6361 52.4043 29.3148 52.4339 29.0322 52.4932C28.7497 52.5479 28.5127 52.6322 28.3213 52.7461C28.1299 52.86 27.984 53.0036 27.8838 53.1768C27.7835 53.3454 27.7334 53.5436 27.7334 53.7715C27.7334 54.0039 27.7858 54.2158 27.8906 54.4072C27.9954 54.5986 28.1527 54.7513 28.3623 54.8652C28.5765 54.9746 28.8385 55.0293 29.1484 55.0293C29.5358 55.0293 29.8776 54.9473 30.1738 54.7832C30.4701 54.6191 30.7048 54.4186 30.8779 54.1816C31.0557 53.9447 31.1514 53.7145 31.165 53.4912L31.7051 54.0996C31.6732 54.291 31.5866 54.5029 31.4453 54.7354C31.304 54.9678 31.1149 55.1911 30.8779 55.4053C30.6455 55.6149 30.3675 55.7904 30.0439 55.9316C29.7249 56.0684 29.3649 56.1367 28.9639 56.1367C28.4626 56.1367 28.0228 56.0387 27.6445 55.8428C27.2708 55.6468 26.9792 55.3848 26.7695 55.0566C26.5645 54.724 26.4619 54.3525 26.4619 53.9424C26.4619 53.5459 26.5394 53.1973 26.6943 52.8965C26.8493 52.5911 27.0726 52.3382 27.3643 52.1377C27.6559 51.9326 28.0068 51.7777 28.417 51.6729C28.8271 51.568 29.2852 51.5156 29.791 51.5156H31.2607ZM37.0576 52.4658H35.6973V51.6865H36.9551C37.306 51.6865 37.584 51.6432 37.7891 51.5566C37.9941 51.4655 38.14 51.3402 38.2266 51.1807C38.3132 51.0212 38.3564 50.8343 38.3564 50.6201C38.3564 50.4287 38.3063 50.2487 38.2061 50.0801C38.1104 49.9069 37.9554 49.7679 37.7412 49.6631C37.527 49.5537 37.2399 49.499 36.8799 49.499C36.5882 49.499 36.3239 49.5514 36.0869 49.6562C35.8499 49.7565 35.6608 49.8955 35.5195 50.0732C35.3828 50.2464 35.3145 50.4424 35.3145 50.6611H34.0498C34.0498 50.21 34.1774 49.8226 34.4326 49.499C34.6924 49.1709 35.0365 48.918 35.4648 48.7402C35.8978 48.5625 36.3695 48.4736 36.8799 48.4736C37.3083 48.4736 37.6911 48.5215 38.0283 48.6172C38.3701 48.7083 38.6595 48.8451 38.8965 49.0273C39.1335 49.2051 39.3135 49.4284 39.4365 49.6973C39.5641 49.9616 39.6279 50.2692 39.6279 50.6201C39.6279 50.8708 39.5687 51.1077 39.4502 51.3311C39.3317 51.5544 39.1608 51.7526 38.9375 51.9258C38.7142 52.0944 38.443 52.2266 38.124 52.3223C37.8096 52.418 37.4541 52.4658 37.0576 52.4658ZM35.6973 51.9873H37.0576C37.4997 51.9873 37.8893 52.0306 38.2266 52.1172C38.5638 52.1992 38.8464 52.3223 39.0742 52.4863C39.3021 52.6504 39.473 52.8532 39.5869 53.0947C39.7054 53.3317 39.7646 53.6051 39.7646 53.915C39.7646 54.2614 39.694 54.5736 39.5527 54.8516C39.416 55.125 39.2201 55.3574 38.9648 55.5488C38.7096 55.7402 38.4043 55.8861 38.0488 55.9863C37.6979 56.0866 37.3083 56.1367 36.8799 56.1367C36.4014 56.1367 35.9365 56.0547 35.4854 55.8906C35.0342 55.7266 34.6628 55.4736 34.3711 55.1318C34.0794 54.7855 33.9336 54.3457 33.9336 53.8125H35.1982C35.1982 54.0358 35.2689 54.2477 35.4102 54.4482C35.5514 54.6488 35.7474 54.8105 35.998 54.9336C36.2533 55.0566 36.5472 55.1182 36.8799 55.1182C37.2354 55.1182 37.5316 55.0635 37.7686 54.9541C38.0055 54.8447 38.1833 54.6989 38.3018 54.5166C38.4248 54.3343 38.4863 54.1361 38.4863 53.9219C38.4863 53.6439 38.4316 53.4206 38.3223 53.252C38.2129 53.0833 38.0443 52.9603 37.8164 52.8828C37.5931 52.8008 37.306 52.7598 36.9551 52.7598H35.6973V51.9873ZM42.7725 53.9971L46.1836 48.6035H47.4551V56H46.1836V50.6064L42.7725 56H41.5146V48.6035H42.7725V53.9971ZM54.5029 51.8096V52.835H50.5928V51.8096H54.5029ZM50.8594 48.6035V56H49.5947V48.6035H50.8594ZM55.5283 48.6035V56H54.2568V48.6035H55.5283ZM63.6289 49.5059C63.3509 49.5059 63.0843 49.5674 62.8291 49.6904C62.5785 49.8135 62.3711 49.9844 62.207 50.2031C62.0475 50.4173 61.9678 50.6657 61.9678 50.9482H60.7578C60.7578 50.5062 60.8945 50.0983 61.168 49.7246C61.4414 49.3464 61.7969 49.0433 62.2344 48.8154C62.6719 48.583 63.1367 48.4668 63.6289 48.4668C64.1484 48.4668 64.6087 48.5648 65.0098 48.7607C65.4108 48.9567 65.748 49.2256 66.0215 49.5674C66.2995 49.9092 66.5091 50.3034 66.6504 50.75C66.7917 51.1921 66.8623 51.6615 66.8623 52.1582V52.4453C66.8623 52.9421 66.7894 53.4137 66.6436 53.8604C66.5023 54.3024 66.2926 54.6966 66.0146 55.043C65.7412 55.3848 65.404 55.6536 65.0029 55.8496C64.6064 56.0456 64.1507 56.1436 63.6357 56.1436C63.0843 56.1436 62.5898 56.0251 62.1523 55.7881C61.7194 55.5511 61.3776 55.2321 61.127 54.8311C60.8809 54.4255 60.7578 53.9697 60.7578 53.4639H61.9678C61.9678 53.7692 62.0407 54.0472 62.1865 54.2979C62.3369 54.5439 62.5374 54.7399 62.7881 54.8857C63.0387 55.0316 63.3213 55.1045 63.6357 55.1045C63.9775 55.1045 64.2715 55.027 64.5176 54.8721C64.7682 54.7171 64.9733 54.512 65.1328 54.2568C65.2923 54.0016 65.4085 53.7168 65.4814 53.4023C65.5589 53.0833 65.5977 52.7643 65.5977 52.4453V52.1582C65.5977 51.8346 65.5589 51.5156 65.4814 51.2012C65.4085 50.8867 65.2923 50.6019 65.1328 50.3467C64.9779 50.0915 64.7751 49.8887 64.5244 49.7383C64.2783 49.5833 63.9798 49.5059 63.6289 49.5059ZM66.2129 51.7139V52.7461H62.8018V51.7139H66.2129ZM73.418 48.6035V49.6494H69.8428V48.6035H73.418ZM74.5322 48.6035V56H73.2676V48.6035H74.5322ZM69.5352 48.6035H70.8066L70.6152 52.1719C70.5833 52.7233 70.5309 53.2109 70.458 53.6348C70.3896 54.054 70.2939 54.4141 70.1709 54.7148C70.0524 55.0156 69.902 55.2617 69.7197 55.4531C69.542 55.64 69.3278 55.779 69.0771 55.8701C68.8265 55.9567 68.5371 56 68.209 56H67.8125V54.8857L68.0859 54.8652C68.2819 54.8516 68.4482 54.806 68.585 54.7285C68.7262 54.651 68.8447 54.5371 68.9404 54.3867C69.0361 54.2318 69.1136 54.0335 69.1729 53.792C69.2367 53.5505 69.2845 53.2633 69.3164 52.9307C69.3529 52.598 69.3802 52.2106 69.3984 51.7686L69.5352 48.6035ZM79.6387 56.1367C79.1237 56.1367 78.6566 56.0501 78.2373 55.877C77.8226 55.6992 77.4648 55.4508 77.1641 55.1318C76.8678 54.8128 76.64 54.4346 76.4805 53.9971C76.321 53.5596 76.2412 53.0811 76.2412 52.5615V52.2744C76.2412 51.6729 76.3301 51.1374 76.5078 50.668C76.6855 50.194 76.9271 49.793 77.2324 49.4648C77.5378 49.1367 77.8841 48.8883 78.2715 48.7197C78.6589 48.5511 79.0599 48.4668 79.4746 48.4668C80.0033 48.4668 80.459 48.5579 80.8418 48.7402C81.2292 48.9225 81.5459 49.1777 81.792 49.5059C82.0381 49.8294 82.2204 50.2122 82.3389 50.6543C82.4574 51.0918 82.5166 51.5703 82.5166 52.0898V52.6572H76.9932V51.625H81.252V51.5293C81.2337 51.2012 81.1654 50.8822 81.0469 50.5723C80.9329 50.2624 80.7507 50.0072 80.5 49.8066C80.2493 49.6061 79.9076 49.5059 79.4746 49.5059C79.1875 49.5059 78.9232 49.5674 78.6816 49.6904C78.4401 49.8089 78.2327 49.9867 78.0596 50.2236C77.8864 50.4606 77.752 50.75 77.6562 51.0918C77.5605 51.4336 77.5127 51.8278 77.5127 52.2744V52.5615C77.5127 52.9124 77.5605 53.2428 77.6562 53.5527C77.7565 53.8581 77.9001 54.127 78.0869 54.3594C78.2783 54.5918 78.5085 54.7741 78.7773 54.9062C79.0508 55.0384 79.3607 55.1045 79.707 55.1045C80.1536 55.1045 80.5319 55.0133 80.8418 54.8311C81.1517 54.6488 81.4229 54.4049 81.6553 54.0996L82.4209 54.708C82.2614 54.9495 82.0586 55.1797 81.8125 55.3984C81.5664 55.6172 81.2633 55.7949 80.9033 55.9316C80.5479 56.0684 80.1263 56.1367 79.6387 56.1367ZM85.3672 48.6035V56H84.1025V48.6035H85.3672ZM90.2207 48.6035L86.7139 52.8418H84.9434L84.752 51.7344H86.2012L88.6826 48.6035H90.2207ZM88.8604 56L86.1396 52.6504L86.9531 51.7344L90.4668 56H88.8604ZM94.582 48.6035V56H93.3105V48.6035H94.582ZM97.0635 48.6035V49.6289H90.877V48.6035H97.0635ZM99.5723 50.0254V58.8438H98.3008V48.6035H99.4629L99.5723 50.0254ZM104.556 52.2402V52.3838C104.556 52.9215 104.492 53.4206 104.364 53.8809C104.237 54.3366 104.05 54.7331 103.804 55.0703C103.562 55.4076 103.264 55.6696 102.908 55.8564C102.553 56.0433 102.145 56.1367 101.685 56.1367C101.215 56.1367 100.8 56.0592 100.44 55.9043C100.08 55.7493 99.7751 55.5238 99.5244 55.2275C99.2738 54.9313 99.0732 54.5758 98.9229 54.1611C98.777 53.7464 98.6768 53.2793 98.6221 52.7598V51.9941C98.6768 51.4473 98.7793 50.9574 98.9297 50.5244C99.0801 50.0915 99.2783 49.7223 99.5244 49.417C99.7751 49.1071 100.078 48.8724 100.434 48.7129C100.789 48.5488 101.199 48.4668 101.664 48.4668C102.129 48.4668 102.541 48.5579 102.901 48.7402C103.261 48.918 103.564 49.1732 103.811 49.5059C104.057 49.8385 104.241 50.2373 104.364 50.7021C104.492 51.1624 104.556 51.6751 104.556 52.2402ZM103.284 52.3838V52.2402C103.284 51.8711 103.245 51.5247 103.168 51.2012C103.09 50.873 102.97 50.5859 102.806 50.3398C102.646 50.0892 102.441 49.8932 102.19 49.752C101.94 49.6061 101.641 49.5332 101.295 49.5332C100.976 49.5332 100.698 49.5879 100.461 49.6973C100.229 49.8066 100.03 49.9548 99.8662 50.1416C99.7021 50.3239 99.5677 50.5335 99.4629 50.7705C99.3626 51.0029 99.2874 51.2445 99.2373 51.4951V53.2656C99.3285 53.5846 99.4561 53.8854 99.6201 54.168C99.7842 54.446 100.003 54.6715 100.276 54.8447C100.55 55.0133 100.894 55.0977 101.309 55.0977C101.65 55.0977 101.944 55.027 102.19 54.8857C102.441 54.7399 102.646 54.5417 102.806 54.291C102.97 54.0404 103.09 53.7533 103.168 53.4297C103.245 53.1016 103.284 52.7529 103.284 52.3838ZM105.834 52.3838V52.2266C105.834 51.6934 105.911 51.1989 106.066 50.7432C106.221 50.2829 106.445 49.8841 106.736 49.5469C107.028 49.2051 107.381 48.9408 107.796 48.7539C108.211 48.5625 108.675 48.4668 109.19 48.4668C109.71 48.4668 110.177 48.5625 110.592 48.7539C111.011 48.9408 111.367 49.2051 111.658 49.5469C111.954 49.8841 112.18 50.2829 112.335 50.7432C112.49 51.1989 112.567 51.6934 112.567 52.2266V52.3838C112.567 52.917 112.49 53.4115 112.335 53.8672C112.18 54.3229 111.954 54.7217 111.658 55.0635C111.367 55.4007 111.013 55.665 110.599 55.8564C110.188 56.0433 109.724 56.1367 109.204 56.1367C108.685 56.1367 108.217 56.0433 107.803 55.8564C107.388 55.665 107.033 55.4007 106.736 55.0635C106.445 54.7217 106.221 54.3229 106.066 53.8672C105.911 53.4115 105.834 52.917 105.834 52.3838ZM107.099 52.2266V52.3838C107.099 52.7529 107.142 53.1016 107.229 53.4297C107.315 53.7533 107.445 54.0404 107.618 54.291C107.796 54.5417 108.017 54.7399 108.281 54.8857C108.546 55.027 108.853 55.0977 109.204 55.0977C109.55 55.0977 109.854 55.027 110.113 54.8857C110.378 54.7399 110.596 54.5417 110.77 54.291C110.943 54.0404 111.073 53.7533 111.159 53.4297C111.25 53.1016 111.296 52.7529 111.296 52.3838V52.2266C111.296 51.862 111.25 51.5179 111.159 51.1943C111.073 50.8662 110.94 50.5768 110.763 50.3262C110.59 50.071 110.371 49.8704 110.106 49.7246C109.847 49.5788 109.541 49.5059 109.19 49.5059C108.844 49.5059 108.539 49.5788 108.274 49.7246C108.015 49.8704 107.796 50.071 107.618 50.3262C107.445 50.5768 107.315 50.8662 107.229 51.1943C107.142 51.5179 107.099 51.862 107.099 52.2266ZM117.018 48.6035V56H115.746V48.6035H117.018ZM119.499 48.6035V49.6289H113.312V48.6035H119.499ZM123.266 56.1367C122.751 56.1367 122.284 56.0501 121.864 55.877C121.45 55.6992 121.092 55.4508 120.791 55.1318C120.495 54.8128 120.267 54.4346 120.107 53.9971C119.948 53.5596 119.868 53.0811 119.868 52.5615V52.2744C119.868 51.6729 119.957 51.1374 120.135 50.668C120.312 50.194 120.554 49.793 120.859 49.4648C121.165 49.1367 121.511 48.8883 121.898 48.7197C122.286 48.5511 122.687 48.4668 123.102 48.4668C123.63 48.4668 124.086 48.5579 124.469 48.7402C124.856 48.9225 125.173 49.1777 125.419 49.5059C125.665 49.8294 125.847 50.2122 125.966 50.6543C126.084 51.0918 126.144 51.5703 126.144 52.0898V52.6572H120.62V51.625H124.879V51.5293C124.861 51.2012 124.792 50.8822 124.674 50.5723C124.56 50.2624 124.378 50.0072 124.127 49.8066C123.876 49.6061 123.535 49.5059 123.102 49.5059C122.814 49.5059 122.55 49.5674 122.309 49.6904C122.067 49.8089 121.86 49.9867 121.687 50.2236C121.513 50.4606 121.379 50.75 121.283 51.0918C121.188 51.4336 121.14 51.8278 121.14 52.2744V52.5615C121.14 52.9124 121.188 53.2428 121.283 53.5527C121.383 53.8581 121.527 54.127 121.714 54.3594C121.905 54.5918 122.135 54.7741 122.404 54.9062C122.678 55.0384 122.988 55.1045 123.334 55.1045C123.781 55.1045 124.159 55.0133 124.469 54.8311C124.779 54.6488 125.05 54.4049 125.282 54.0996L126.048 54.708C125.888 54.9495 125.686 55.1797 125.439 55.3984C125.193 55.6172 124.89 55.7949 124.53 55.9316C124.175 56.0684 123.753 56.1367 123.266 56.1367ZM128.475 48.6035L130.095 51.2969L131.735 48.6035H133.219L130.799 52.2539L133.294 56H131.831L130.122 53.2246L128.413 56H126.943L129.432 52.2539L127.019 48.6035H128.475ZM139.583 51.8096V52.835H135.673V51.8096H139.583ZM135.939 48.6035V56H134.675V48.6035H135.939ZM140.608 48.6035V56H139.337V48.6035H140.608ZM144.013 53.9971L147.424 48.6035H148.695V56H147.424V50.6064L144.013 56H142.755V48.6035H144.013V53.9971ZM152.1 48.6035V56H150.835V48.6035H152.1ZM156.953 48.6035L153.446 52.8418H151.676L151.484 51.7344H152.934L155.415 48.6035H156.953ZM155.593 56L152.872 52.6504L153.686 51.7344L157.199 56H155.593ZM159.667 53.9971L163.078 48.6035H164.35V56H163.078V50.6064L159.667 56H158.409V48.6035H159.667V53.9971Z" fill="#001B48"/>
</svg>
